<svg version="1.1"
  xmlns="http://www.w3.org/2000/svg" viewBox="0 0 566 300" width="566" height="300">
  <!-- svg-source:excalidraw -->

  <defs>
    <style class="style-fonts">
      @font-face {
        font-family: "Virgil";
        src: url("https://excalidraw.com/Virgil.woff2");
      }
      @font-face {
        font-family: "Cascadia";
        src: url("https://excalidraw.com/Cascadia.woff2");
      }
      @font-face {
        font-family: "Assistant";
        src: url("https://excalidraw.com/Assistant-Regular.woff2");
      }
    </style>

  </defs>
  <rect x="0" y="0" width="566.5" height="300.9" fill="#ffffff"></rect>
  <g stroke-linecap="round" transform="translate(25.770004272460938 64.30000000000001) rotate(0 87.5 34)">
    <path d="M0 0 C57.24 0, 114.47 0, 175 0 M0 0 C62.09 0, 124.18 0, 175 0 M175 0 C175 22.21, 175 44.41, 175 68 M175 0 C175 18.03, 175 36.05, 175 68 M175 68 C114.66 68, 54.32 68, 0 68 M175 68 C125.81 68, 76.62 68, 0 68 M0 68 C0 44.69, 0 21.38, 0 0 M0 68 C0 43.69, 0 19.39, 0 0" stroke="#1e1e1e" stroke-width="2" fill="none"></path>
  </g>
  <g transform="translate(30.770004272460938 69.30000000000001) rotate(0 37.5 28.799999999999997)">
    <text x="0" y="0" font-family="Cascadia, Segoe UI Emoji" font-size="16px" fill="#1e1e1e" text-anchor="start" style="white-space: pre;" direction="ltr" dominant-baseline="text-before-edge">cid</text>
    <text x="0" y="19.2" font-family="Cascadia, Segoe UI Emoji" font-size="16px" fill="#1e1e1e" text-anchor="start" style="white-space: pre;" direction="ltr" dominant-baseline="text-before-edge">protocol</text>
    <text x="0" y="38.4" font-family="Cascadia, Segoe UI Emoji" font-size="16px" fill="#1e1e1e" text-anchor="start" style="white-space: pre;" direction="ltr" dominant-baseline="text-before-edge">(...)</text>
  </g>
  <g transform="translate(10 14) rotate(0 103.27000427246094 12.5)">
    <text x="0" y="0" font-family="Virgil, Segoe UI Emoji" font-size="20px" fill="#1e1e1e" text-anchor="start" style="white-space: pre;" direction="ltr" dominant-baseline="text-before-edge">Measurement objects</text>
  </g>
  <g stroke-linecap="round" transform="translate(25.770004272460938 145.25) rotate(0 87.5 34)">
    <path d="M0 0 C56.25 0, 112.49 0, 175 0 M0 0 C55.75 0, 111.5 0, 175 0 M175 0 C175 14.99, 175 29.98, 175 68 M175 0 C175 21.85, 175 43.7, 175 68 M175 68 C116.84 68, 58.69 68, 0 68 M175 68 C134.86 68, 94.71 68, 0 68 M0 68 C0 45.52, 0 23.03, 0 0 M0 68 C0 48.62, 0 29.25, 0 0" stroke="#1e1e1e" stroke-width="2" fill="none"></path>
  </g>
  <g transform="translate(30.770004272460938 150.25) rotate(0 37.5 28.80000000000001)">
    <text x="0" y="0" font-family="Cascadia, Segoe UI Emoji" font-size="16px" fill="#1e1e1e" text-anchor="start" style="white-space: pre;" direction="ltr" dominant-baseline="text-before-edge">cid</text>
    <text x="0" y="19.2" font-family="Cascadia, Segoe UI Emoji" font-size="16px" fill="#1e1e1e" text-anchor="start" style="white-space: pre;" direction="ltr" dominant-baseline="text-before-edge">protocol</text>
    <text x="0" y="38.4" font-family="Cascadia, Segoe UI Emoji" font-size="16px" fill="#1e1e1e" text-anchor="start" style="white-space: pre;" direction="ltr" dominant-baseline="text-before-edge">(...)</text>
  </g>
  <g stroke-linecap="round" transform="translate(25.770004272460938 222.89999999999998) rotate(0 87.5 34)">
    <path d="M0 0 C66.16 0, 132.33 0, 175 0 M0 0 C66.17 0, 132.34 0, 175 0 M175 0 C175 22.26, 175 44.52, 175 68 M175 0 C175 23.35, 175 46.7, 175 68 M175 68 C133.22 68, 91.44 68, 0 68 M175 68 C116.02 68, 57.03 68, 0 68 M0 68 C0 51.75, 0 35.5, 0 0 M0 68 C0 47.59, 0 27.18, 0 0" stroke="#1e1e1e" stroke-width="2" fill="none"></path>
  </g>
  <g transform="translate(30.770004272460938 227.89999999999998) rotate(0 37.5 28.80000000000001)">
    <text x="0" y="0" font-family="Cascadia, Segoe UI Emoji" font-size="16px" fill="#1e1e1e" text-anchor="start" style="white-space: pre;" direction="ltr" dominant-baseline="text-before-edge">cid</text>
    <text x="0" y="19.2" font-family="Cascadia, Segoe UI Emoji" font-size="16px" fill="#1e1e1e" text-anchor="start" style="white-space: pre;" direction="ltr" dominant-baseline="text-before-edge">protocol</text>
    <text x="0" y="38.4" font-family="Cascadia, Segoe UI Emoji" font-size="16px" fill="#1e1e1e" text-anchor="start" style="white-space: pre;" direction="ltr" dominant-baseline="text-before-edge">(...)</text>
  </g>
  <g transform="translate(352.7799949645996 10) rotate(0 59.22000503540039 12.5)">
    <text x="0" y="0" font-family="Virgil, Segoe UI Emoji" font-size="20px" fill="#1e1e1e" text-anchor="start" style="white-space: pre;" direction="ltr" dominant-baseline="text-before-edge">String bytes</text>
  </g>
  <g stroke-linecap="round" transform="translate(267.5 63.30000000000001) rotate(0 144.5 14.599999999999994)">
    <path d="M0 0 C90.09 0, 180.18 0, 289 0 M0 0 C64.42 0, 128.84 0, 289 0 M289 0 C289 9.68, 289 19.36, 289 29.2 M289 0 C289 8.94, 289 17.88, 289 29.2 M289 29.2 C196.34 29.2, 103.68 29.2, 0 29.2 M289 29.2 C215.16 29.2, 141.33 29.2, 0 29.2 M0 29.2 C0 21.1, 0 13.01, 0 0 M0 29.2 C0 22.1, 0 15, 0 0" stroke="#1e1e1e" stroke-width="2" fill="none"></path>
  </g>
  <g transform="translate(272.5 68.30000000000001) rotate(0 37.5 9.599999999999994)">
    <text x="0" y="0" font-family="Cascadia, Segoe UI Emoji" font-size="16px" fill="#1e1e1e" text-anchor="start" style="white-space: pre;" direction="ltr" dominant-baseline="text-before-edge">bafy1...</text>
  </g>
  <g stroke-linecap="round" transform="translate(267.5 144.25) rotate(0 144.5 14.599999999999994)">
    <path d="M0 0 C60.32 0, 120.65 0, 289 0 M0 0 C78.94 0, 157.88 0, 289 0 M289 0 C289 10.72, 289 21.43, 289 29.2 M289 0 C289 9.82, 289 19.64, 289 29.2 M289 29.2 C187.54 29.2, 86.08 29.2, 0 29.2 M289 29.2 C174.95 29.2, 60.9 29.2, 0 29.2 M0 29.2 C0 17.66, 0 6.11, 0 0 M0 29.2 C0 19.44, 0 9.68, 0 0" stroke="#1e1e1e" stroke-width="2" fill="none"></path>
  </g>
  <g transform="translate(272.5 149.25) rotate(0 37.5 9.599999999999994)">
    <text x="0" y="0" font-family="Cascadia, Segoe UI Emoji" font-size="16px" fill="#1e1e1e" text-anchor="start" style="white-space: pre;" direction="ltr" dominant-baseline="text-before-edge">bafy1...</text>
  </g>
  <g stroke-linecap="round" transform="translate(267.5 223.89999999999998) rotate(0 144.5 14.599999999999994)">
    <path d="M0 0 C63.21 0, 126.42 0, 289 0 M0 0 C66.53 0, 133.07 0, 289 0 M289 0 C289 8.82, 289 17.64, 289 29.2 M289 0 C289 6.71, 289 13.42, 289 29.2 M289 29.2 C207.27 29.2, 125.54 29.2, 0 29.2 M289 29.2 C214.73 29.2, 140.46 29.2, 0 29.2 M0 29.2 C0 20.28, 0 11.36, 0 0 M0 29.2 C0 21.2, 0 13.19, 0 0" stroke="#1e1e1e" stroke-width="2" fill="none"></path>
  </g>
  <g transform="translate(272.5 228.89999999999998) rotate(0 37.5 9.599999999999994)">
    <text x="0" y="0" font-family="Cascadia, Segoe UI Emoji" font-size="16px" fill="#1e1e1e" text-anchor="start" style="white-space: pre;" direction="ltr" dominant-baseline="text-before-edge">bafy1...</text>
  </g>
  <g stroke-linecap="round">
    <g transform="translate(72.5 79.5) rotate(0 95 -0.7849559644478887)">
      <path d="M0 0 C47.09 -0.39, 94.18 -0.78, 190 -1.57 M0 0 C58.96 -0.49, 117.92 -0.97, 190 -1.57" stroke="#1e1e1e" stroke-width="2" fill="none"></path>
    </g>
    <g transform="translate(72.5 79.5) rotate(0 95 -0.7849559644478887)">
      <path d="M190 -1.57 L176.46 4.88 L176.35 -7.8 L190 -1.57" stroke="none" stroke-width="0" fill="#1e1e1e" fill-rule="evenodd"></path>
      <path d="M190 -1.57 C186.64 0.03, 183.29 1.63, 176.46 4.88 M190 -1.57 C185.8 0.43, 181.6 2.43, 176.46 4.88 M176.46 4.88 C176.43 1.68, 176.41 -1.53, 176.35 -7.8 M176.46 4.88 C176.42 0.15, 176.38 -4.58, 176.35 -7.8 M176.35 -7.8 C179.47 -6.37, 182.6 -4.95, 190 -1.57 M176.35 -7.8 C180.5 -5.9, 184.65 -4.01, 190 -1.57 M190 -1.57 C190 -1.57, 190 -1.57, 190 -1.57 M190 -1.57 C190 -1.57, 190 -1.57, 190 -1.57" stroke="#1e1e1e" stroke-width="2" fill="none"></path>
    </g>
  </g>
  <mask></mask>
  <g stroke-linecap="round">
    <g transform="translate(72 160.5) rotate(0 96 -0.7891815314046369)">
      <path d="M0 0 C62.78 -0.52, 125.57 -1.03, 192 -1.58 M0 0 C38.7 -0.32, 77.4 -0.64, 192 -1.58" stroke="#1e1e1e" stroke-width="2" fill="none"></path>
    </g>
    <g transform="translate(72 160.5) rotate(0 96 -0.7891815314046369)">
      <path d="M192 -1.58 L178.46 4.87 L178.35 -7.81 L192 -1.58" stroke="none" stroke-width="0" fill="#1e1e1e" fill-rule="evenodd"></path>
      <path d="M192 -1.58 C187.57 0.53, 183.14 2.64, 178.46 4.87 M192 -1.58 C189.27 -0.28, 186.54 1.02, 178.46 4.87 M178.46 4.87 C178.43 1.85, 178.41 -1.18, 178.35 -7.81 M178.46 4.87 C178.42 0.47, 178.39 -3.93, 178.35 -7.81 M178.35 -7.81 C182.41 -5.96, 186.46 -4.1, 192 -1.58 M178.35 -7.81 C181.82 -6.22, 185.28 -4.64, 192 -1.58 M192 -1.58 C192 -1.58, 192 -1.58, 192 -1.58 M192 -1.58 C192 -1.58, 192 -1.58, 192 -1.58" stroke="#1e1e1e" stroke-width="2" fill="none"></path>
    </g>
  </g>
  <mask></mask>
  <g stroke-linecap="round">
    <g transform="translate(72 238.5) rotate(0 97 -0.5)">
      <path d="M0 0 C45.61 -0.24, 91.21 -0.47, 194 -1 M0 0 C57.77 -0.3, 115.54 -0.6, 194 -1" stroke="#1e1e1e" stroke-width="2" fill="none"></path>
    </g>
    <g transform="translate(72 238.5) rotate(0 97 -0.5)">
      <path d="M194 -1 L180.44 5.41 L180.37 -7.27 L194 -1" stroke="none" stroke-width="0" fill="#1e1e1e" fill-rule="evenodd"></path>
      <path d="M194 -1 C190.81 0.51, 187.62 2.01, 180.44 5.41 M194 -1 C189.96 0.91, 185.92 2.82, 180.44 5.41 M180.44 5.41 C180.41 0.35, 180.39 -4.71, 180.37 -7.27 M180.44 5.41 C180.41 0.59, 180.39 -4.24, 180.37 -7.27 M180.37 -7.27 C184.47 -5.38, 188.57 -3.5, 194 -1 M180.37 -7.27 C185.69 -4.82, 191.02 -2.37, 194 -1 M194 -1 C194 -1, 194 -1, 194 -1 M194 -1 C194 -1, 194 -1, 194 -1" stroke="#1e1e1e" stroke-width="2" fill="none"></path>
    </g>
  </g>
  <mask></mask>
</svg>
